<svg version="1.1" xmlns="http://www.w3.org/2000/svg" xmlns:xlink="http://www.w3.org/1999/xlink" viewBox="0 0 32 32">
  <path d="M0 23.445l14.727 8.552v-12.531l-14.727-8.556v12.534zM27.559 6.675v1.317c0 0.975-1.856 1.766-4.149 1.766-2.29 0-4.147-0.791-4.147-1.766v-2.179h0.013c0.14 0.92 1.934 1.649 4.134 1.649 2.293 0 4.148-0.791 4.148-1.763 0-0.976-1.855-1.765-4.148-1.765-0.182 0-0.362 0.005-0.538 0.016l-2.67-1.55v1.656c0 0.975-1.854 1.766-4.145 1.766-1.44 0-2.708-0.313-3.453-0.787-0.105-0.109-0.236-0.215-0.393-0.315-0.195-0.205-0.303-0.428-0.303-0.663v-1.603l-2.58 1.499c-0.186-0.009-0.374-0.018-0.566-0.018-2.29 0-4.147 0.788-4.147 1.765 0 0.972 1.857 1.763 4.147 1.763 2.2 0 3.997-0.729 4.136-1.649h0.012v2.179c0 0.975-1.854 1.766-4.147 1.766-2.29 0-4.147-0.791-4.147-1.766v-1.299l-3.195 1.853 14.777 8.58 14.68-8.524-3.318-1.927zM20.236 12.132c0 0.975-1.857 1.764-4.147 1.764-2.291 0-4.148-0.789-4.148-1.764v-2.179h0.013c0.14 0.921 1.934 1.651 4.136 1.651s3.995-0.73 4.136-1.651h0.011v2.179h0.001zM17.474 19.578v12.422l14.729-8.555v-12.422l-14.729 8.555zM16.057 3.527c2.291 0 4.145-0.789 4.145-1.764 0-0.974-1.854-1.764-4.145-1.764s-4.148 0.79-4.148 1.764c-0.001 0.975 1.857 1.764 4.148 1.764z"></path>
</svg>
