<svg version="1.1" xmlns="http://www.w3.org/2000/svg" xmlns:xlink="http://www.w3.org/1999/xlink" viewBox="0 0 32 32">
  <path d="M2.852 32h12.317v-13.702h-12.317v13.702zM30.612 8.733h-7.225c0.513-0.263 0.969-0.541 1.375-0.832 1.564-1.116 2.388-2.532 2.384-3.939 0.002-1.151-0.548-2.169-1.339-2.858-0.793-0.693-1.841-1.102-2.971-1.104-1.202-0.001-2.317 0.415-3.27 1.053-1.437 0.964-2.567 2.414-3.373 4.006-0.038 0.078-0.077 0.155-0.113 0.232-0.295-0.614-0.637-1.208-1.025-1.765-0.681-0.97-1.5-1.832-2.46-2.473-0.956-0.636-2.072-1.053-3.272-1.053-1.195 0.004-2.288 0.506-3.108 1.276-0.816 0.771-1.389 1.857-1.391 3.088-0.002 0.719 0.208 1.472 0.639 2.155 0.544 0.859 1.403 1.604 2.594 2.214h-6.489c-0.865 0-1.567 0.701-1.567 1.566v5.809h15.166v-7.376h1.845v7.376h15.166v-5.809c0.003-0.866-0.698-1.566-1.564-1.566zM8.585 6.429c-0.613-0.385-0.985-0.773-1.202-1.118-0.217-0.349-0.29-0.652-0.292-0.949-0.004-0.496 0.244-1.026 0.681-1.439 0.43-0.409 1.013-0.657 1.539-0.657h0.013c0.675 0 1.346 0.228 2.015 0.673 1.003 0.661 1.945 1.822 2.605 3.139 0.337 0.666 0.6 1.369 0.777 2.056-3.036-0.316-5.002-0.987-6.137-1.705zM18.964 4.827c0.549-0.785 1.192-1.444 1.859-1.887 0.67-0.444 1.342-0.673 2.016-0.673h0.006c0.565 0 1.1 0.217 1.472 0.542 0.371 0.331 0.562 0.728 0.564 1.153-0.004 0.504-0.268 1.24-1.445 2.1-1.121 0.813-3.055 1.648-6.035 2.231 0.286-1.184 0.834-2.435 1.563-3.466zM17.014 32h12.319v-13.702h-12.319v13.702z"></path>
</svg>
