<svg version="1.1" xmlns="http://www.w3.org/2000/svg" xmlns:xlink="http://www.w3.org/1999/xlink" viewBox="0 0 37 32">
  <path d="M37.212 6.48c-0.36-0.581-1.442-0.439-2.232-0.589h-1.764c0.225-0.56 0.544-1.025 0.825-1.528 0.089-0.695 0.403-1.165 0.354-1.999 0.205-0.265 0.279-0.662 0.47-0.941 0.165-0.228 0.384-0.757 0.117-1.058-0.081-0.351-0.468-0.395-0.941-0.352-0.14 0.057-0.268 0.125-0.352 0.235-0.711 0.687-1.234 1.609-2.001 2.234-0.014 0.013-0.098 0-0.117 0-0.138 0.008-0.052 0.073-0.119 0.117-0.232 0.155-0.408 0.241-0.585 0.354-0.451 0.279-0.868 0.706-1.414 0.823-0.839-0.335-1.834-0.517-2.939-0.587-1.836 0.162-3.654 0.341-4.82 1.176-1.445 0.555-2.343 1.653-3.41 2.586-0.078 0.508-0.543 0.631-0.587 1.176-0.008 0.071-0.019 0.14-0.116 0.117 0.068 0.382-0.081 0.547-0.117 0.823-0.002 0.211 0.316 0.684 0 0.825-1.304-0.19-2.356-1-3.41-1.53-1.139-0.571-2.329-0.958-3.291-1.763-1.136-0.511-1.999-1.295-2.821-2.117-0.33-0.495-0.86-0.787-1.058-1.412-0.601-0.26-0.278-1.447-1.176-1.411-0.5-0.068-0.547 0.316-0.704 0.587-0.111 0.36-0.573 0.368-0.589 0.823-0.006 0.073-0.017 0.14-0.117 0.119-0.27 1.728-0.836 3.161-0.823 5.173 0.205 0.658 0.555 1.171 0.941 1.647-0.663 0.081-1.136 0.352-1.412 0.823-0.095 1.703 0.6 2.613 1.177 3.645 0.213 0.609 0.558 1.087 0.941 1.528 0.027 0.363 0.327 0.457 0.47 0.706 0.030 0.167 0.195 0.198 0.236 0.354-0.063 0.167 0.459 0.286 0.116 0.351-0.655 0.208-1.612 0.111-1.998 0.589-0.173 0.443-0.173 1.322 0 1.763 0.054 0.376 0.447 0.416 0.47 0.823 0.792 0.662 1.717 1.185 2.588 1.764 0.911 0.263 1.921 0.43 2.939 0.587-0.162 0.544-0.536 0.874-0.941 1.176-1.238 0.605-2.934 0.752-4.351 1.174-0.881 0.060-1.517 0.365-2.469 0.354-0.528 0.201-1.355 0.119-1.764 0.354-0.194 0.108-0.162 0.152-0.352 0.351-0.213 0.654 0.176 1.174 0.704 1.412-0.008 0.401 0.347 0.438 0.589 0.589 0.141 0.29 0.403 0.46 0.706 0.587 0.863 0.743 2.012 1.204 3.058 1.764 1.317 0.29 2.615 0.597 3.998 0.823 1.422 0.184 3.016 0.197 4.468 0.352h1.528c0.811 0.209 1.952 0.086 2.94 0.117 0.151-0.162 0.511-0.116 0.823-0.117 0.828-0.427 1.898-0.611 2.588-1.174 0.911-0.382 1.569-1.019 2.47-1.412 1.374-1.214 3.073-2.101 3.997-3.76 0.325-0.3 0.557-0.695 0.706-1.174 0.42-0.248 0.611-0.72 0.941-1.058 0.641-0.651 1.12-1.466 1.645-2.221 0.506-0.787 0.914-1.672 1.412-2.469-0.016-0.643 0.486-0.768 0.47-1.412 0.306-0.359 0.281-1.050 0.589-1.396-0.052-0.405 0.046-0.658 0.117-0.942 0.075-2.033-0.075-3.843-0.471-5.406 0.933-0.246 1.874-0.479 2.588-0.941 0.825-0.327 1.576-0.957 1.282-2.033zM31.805 12.947c-0.243 1.363-0.976 2.237-1.647 3.175 0.094 0.601-0.165 0.854-0.116 1.411-0.251 0.495-0.455 1.035-0.589 1.645-0.322 0.424-0.527 0.962-0.823 1.412-0.581 0.869-1.233 1.668-1.882 2.47-0.6 0.889-1.447 1.531-2.117 2.35-0.666 0.782-1.495 1.404-2.232 2.117-0.752 0.27-1.412 0.628-1.999 1.058-0.368 0.143-0.735 0.286-1.058 0.47-0.281 0.232-0.792 0.23-1.060 0.46-1.723 0.233-3.649 0.27-5.641 0.235-1.636-0.167-3.356-0.252-4.822-0.589-1.463-0.3-2.397-1.13-3.645-1.645 0.243-0.384 1.006-0.244 1.528-0.352 0.049-0.263 0.625-0.005 0.704-0.236 0.408 0.095 0.452-0.173 0.825-0.111 0.893-0.319 1.952-0.479 2.705-0.941 0.447-0.219 0.644-0.689 1.058-0.941 0.052-0.3 0.165-0.541 0.352-0.704 0.075-0.436 0.319-0.7 0.235-1.293 0.176-0.333 0.474-0.544 0.47-1.058-0.117-0.233-0.203-0.501-0.47-0.589-0.041-0.311-0.598-0.106-0.704-0.352-0.405 0.051-0.66-0.046-0.941-0.119-0.244-0.068-0.773 0.146-0.823-0.116-1.336-0.037-2.063-0.682-2.94-1.174 0.684-0.416 1.637-0.56 2.115-1.177 0.819-0.121 1.679-0.205 1.764-1.057 0-1.138-1.223-1.049-2.115-1.293-1.226-1.047-1.894-2.653-2.823-3.998 0.378-0.249 0.895-0.359 1.176-0.704 0.72 0.092 0.857-0.398 1.058-0.825 0.030-0.774-0.528-0.96-0.941-1.293-0.411-0.333-0.754-0.733-1.058-1.174-0.005-1.298-0.033-2.621 0.117-3.764 0.1-0.022 0.111 0.046 0.117 0.117 0.36 0.7 0.887 1.23 1.293 1.882 0.844 0.566 1.468 1.353 2.469 1.764 0.717 0.655 1.758 0.985 2.47 1.647 0.954 0.417 1.837 0.904 2.704 1.411 1.061 0.308 1.676 1.068 3.175 0.941 0.314-0.155 0.625-0.316 0.941-0.471 0.409-0.724-0.094-1.712 0.233-2.586 0.405-1.046 1.265-1.636 1.999-2.35 0.46-0.246 0.881-0.532 1.293-0.823 0.551-0.155 1.071-0.343 1.53-0.587 0.597-0.030 1.131-0.122 1.645-0.235h1.999c0.387 0.082 0.754 0.189 1.174 0.235 0.332 0.217 0.603 0.497 1.057 0.589 1.252 1.1 2.017 2.691 2.236 4.822-0.194 0.768 0.084 1.385 0.002 2.35zM32.275 4.011c-0.205 0.539-0.365 1.122-0.941 1.293-0.027-0.167-0.194-0.198-0.233-0.352-0.019-0.332 0.332-0.295 0.47-0.47 0.257-0.135 0.389-0.394 0.704-0.471-0.011-0.143 0.171-0.073 0 0zM23.573 8.831c0.259 0.214 0.451 0.492 0.823 0.589 0.16 0.351 0.498 0.519 0.942 0.587 0.075-0.238 0.549-0.078 0.587-0.352 0.276-0.037 0.263-0.363 0.47-0.471-0.029-0.873-0.205-1.596-0.587-2.115-1.203-0.671-2.659 0.062-2.236 1.763z"></path>
</svg>
