<svg version="1.1" xmlns="http://www.w3.org/2000/svg" xmlns:xlink="http://www.w3.org/1999/xlink" viewBox="0 0 17 32">
  <path d="M13.464 5.994c1.184 0.033 2.301 0 3.095-0.346 0.451-0.944 0.642-2.14 0.715-3.451-0.219-0.017-0.072-0.389-0.239-0.461-0.033-0.233-0.321-0.225-0.357-0.46-0.32-0.191-0.528-0.487-0.835-0.69-0.839-0.187-1.662-0.387-2.498-0.576-0.98 0.051-2.188-0.119-2.979 0.115-3.024-0.046-4.614 1.293-6.071 2.762-0.027 0.090-0.003 0.227-0.121 0.23-0.663 1.832-0.144 4.18-0.236 6.443 0.114 0.503 0.124 1.106 0.236 1.611-1.152 0.342-2.554 0.447-3.928 0.576-0.366 0.374-0.205 1.257-0.238 1.955 0.098 0.673 0.321 1.224 0.477 1.841 0.244 0.223 0.688 0.457 0.952 0.575 0.075 0.033 0.082 0.095 0.119 0.115 0.584 0.309 1.675 0.009 2.618 0.115-0.157 2.284 0.296 4.52 0 6.557 0.008 0.378 0.341 0.441 0.24 0.921-0.001 1.112-0.077 2.297 0.24 3.106-0.331 0.525-0.574 1.134-0.479 2.071 0.141 0.018 0.132 0.181 0.121 0.345-0.087 0.543 0.742 0.202 0.595 0.806 0.187 0.526-0.494 0.212-0.477 0.575v1.034c0.612 0.329 1.688 0.21 2.618 0.23 1.048-0.484 2.526-0.553 3.215-1.381 0.53 0.271 1.058-0.016 1.429-0.23-0.021-0.364 0.315-0.384 0.237-0.806-0.005-0.379-0.2-0.573-0.119-1.034v-3.336c-0.238-2.647-0.055-5.701-0.357-8.285 1.025-0.121 2.213-0.087 2.976-0.459 0.412-0.521 0.435-1.42 0.596-2.188 0.204-0.261 0.255-0.673 0.238-1.15 0.219-0.246 0.079-0.842 0.12-1.265-0.163-0.687-0.194-1.501-0.952-1.605-1.021-0.271-2.359 0.687-3.453 0.345 0.057-1.309-0.338-2.704 0-3.911 0.861-0.209 1.669-0.462 2.501-0.695zM9.056 11.516c0.135 0.293 0.293 0.561 0.478 0.806 0.091 0.025 0.234 0.003 0.237 0.117 1.376 0.065 2.539-0.080 3.574-0.345 0 1.152-0.313 2.001-0.598 2.877-0.764 0.052-1.694 0.346-2.26 0.229-0.319 0.191-0.429 0.584-0.716 0.806-0.057 0.509 0.164 0.571 0 0.92-0.232 0.158-0.063 0.705-0.237 0.919v1.727c0.098 0.324-0.169 0.298-0.12 0.574v4.027c-0.098 0.324 0.169 0.298 0.12 0.575v3.451c0.073 0.313-0.152 0.913 0.119 1.034-0.081 0.42-0.476-0.024-0.951 0.115-0.61 0.141-1.069 0.426-1.787 0.462 0.135-0.408 0.369-0.718 0.359-1.266 0.057-0.44-0.421-0.36-0.596-0.566 0.223-0.744 0.649-1.29 0.834-2.070 0.227-0.595 0.824-1.499 0.358-2.071-0.603-0.121-0.601 0.338-0.954 0.459-0.025 0.089-0.002 0.226-0.119 0.23-0.027 0.089-0.003 0.226-0.119 0.23 0.012 0.139-0.174 0.072 0 0 0.025-0.090 0.002-0.227 0.119-0.23 0.027-0.089 0.002-0.227 0.119-0.23v-0.345c0.425-0.664 0.774-1.402 0.954-2.301 0.22-0.323 0.327-0.757 0.476-1.151 0.18-0.302 0.393-1.003 0.12-1.38-0.597 0.038-0.919 0.341-1.074 0.805-0.369-0.218 0.186-0.501 0.12-0.805 0.159-0.267 0.195-0.653 0.357-0.92 0.233-0.477 0.651-1.505 0-1.843-0.506-0.027-0.707 0.239-0.835 0.575-0.247 0.221-0.496 0.442-0.596 0.806-0.431-0.081-0.165-0.839-0.238-1.266-0.077-0.6 0.141-1.038 0-1.38-0.646-0.922-2.339-0.121-3.691-0.345-0.125-0.354-0.256-1.136-0.12-1.38 1.206-0.102 2.862 0.232 3.691-0.23 0.028-0.090 0.003-0.227 0.12-0.23 0.109-0.835-0.313-1.155-0.595-1.612 0.268-0.931 0.046-2.332 0.12-3.451 0.269-0.163 0.379-0.478 0.595-0.69 0.129-1.103 0.777-1.704 0.834-2.875-0.315 0.001-0.701-0.064-0.715 0.23-0.349-0.132-0.441 0.553-0.595 0.23-0.129-0.625 0.284-0.723 0.357-1.151 0.692-0.483 1.399-0.947 2.143-1.38 2.010-0.282 5.366-0.518 7.026 0.229 0.059 0.711-0.331 0.986-0.239 1.727h-1.785c-1.261 0.277-2.294 0.776-3.453 1.151-0.277 0.076-0.319 0.382-0.596 0.46-0.042 0.457-0.26 0.746-0.359 1.15-0.091 1.652 0.154 2.989 0.118 4.593z"></path>
</svg>
