<svg version="1.1" xmlns="http://www.w3.org/2000/svg" xmlns:xlink="http://www.w3.org/1999/xlink" viewBox="0 0 55 32">
  <path d="M49.958 0h-45.387c-2.524 0-4.571 2.048-4.571 4.572v22.855c0 2.524 2.047 4.572 4.571 4.572h45.387c2.524 0 4.572-2.048 4.572-4.572v-22.855c0-2.524-2.048-4.572-4.572-4.572zM3.539 29.211v-26.030h47.068v26.030h-47.068z"></path>
  <path d="M8.111 24.64h37.928v-16.887h-37.928v16.887zM27.265 9.975c3.437 0 6.223 2.786 6.223 6.222 0 3.437-2.785 6.222-6.223 6.222s-6.222-2.785-6.222-6.222c-0.001-3.436 2.784-6.222 6.222-6.222z"></path>
</svg>
