<svg version="1.1" xmlns="http://www.w3.org/2000/svg" xmlns:xlink="http://www.w3.org/1999/xlink" viewBox="0 0 21 32">
  <path d="M7.782 19.462c-0.147 0.495-0.126 1.123 0.014 1.866 0.253 1.351 0.865 3.097 1.209 4.958h2.595c0.357-1.867 0.999-3.615 1.267-4.965 0.147-0.741 0.169-1.364 0.021-1.855-0.141-0.461-0.456-0.83-1.036-1.181h-3.075c-0.551 0.348-0.858 0.713-0.995 1.176z"></path>
  <path d="M13.848 29.714h-7.075c-0.663 0-1.179 0.5-1.179 1.143v1.143h9.433v-1.143c0-0.642-0.516-1.143-1.179-1.143z"></path>
  <path d="M17.506 1.143h-6.015c0-0.638-0.52-1.143-1.179-1.143-0.658 0-1.179 0.505-1.179 1.143h-6.018l-3.114 13.083c0.407-0.236 0.815-0.509 1.349-0.509 0.697 0 1.15 0.419 1.499 0.705s0.596 0.435 0.742 0.435c0.15 0.001 0.394-0.147 0.744-0.429s0.802-0.696 1.495-0.696c0.692 0 1.147 0.413 1.497 0.694 0.351 0.281 0.595 0.431 0.744 0.431 0.075 0 0.173-0.037 0.297-0.11s0.272-0.181 0.447-0.321c0.263-0.211 0.584-0.496 1.020-0.624 0.146-0.044 0.304-0.070 0.477-0.070 0.691 0 1.148 0.413 1.497 0.694s0.594 0.431 0.744 0.431c0.147-0.001 0.393-0.152 0.741-0.436 0.351-0.284 0.806-0.701 1.5-0.701s1.148 0.419 1.497 0.703c0.175 0.142 0.324 0.251 0.447 0.324s0.221 0.11 0.295 0.11c0.148 0 0.391-0.15 0.739-0.438 0.349-0.287 0.803-0.71 1.502-0.71 0.535 0 0.943 0.273 1.349 0.511l-3.117-13.078z"></path>
  <path d="M12.061 27.428h-3.519c-0.337 0-0.59 0.246-0.59 0.572s0.253 0.571 0.59 0.571h3.538c0.336 0 0.59-0.246 0.59-0.571 0-0.326-0.254-0.572-0.59-0.572h-0.018z"></path>
  <path d="M10.31 14.875c-0.075 0-0.173 0.038-0.297 0.109-0.081 0.048-0.19 0.134-0.292 0.21v1.913h1.179v-1.913c-0.259-0.194-0.466-0.319-0.589-0.319z"></path>
</svg>
