<svg version="1.1" xmlns="http://www.w3.org/2000/svg" xmlns:xlink="http://www.w3.org/1999/xlink" viewBox="0 0 75 32">
  <path d="M55.644 7.884c-5.034-1.34-10.82-2.301-17.059-2.3-3.99 0.001-7.532 0.335-10.642 0.86l-9.364-6.443-18.574 0.007 8.021 8.536h11.66c-6.322 2.206-9.33 4.852-9.33 4.852l0.003 5.213c0 0 3.193 2.639 9.567 4.856l-11.902-0.007-8.021 8.541 18.572 0.003 9.408-6.476c3.121 0.549 6.656 0.893 10.602 0.894 6.242-0.001 12.025-0.962 17.061-2.301-1.623-2.45-2.643-5.167-2.647-8.112 0.004-2.955 1.019-5.676 2.646-8.123z"></path>
  <path d="M60.368 9.312c-1.772 2.215-2.718 4.486-2.712 6.681-0.010 2.204 0.934 4.469 2.716 6.69 8.833-2.984 14.382-6.682 14.382-6.682s-5.547-3.699-14.386-6.689z"></path>
</svg>
