<svg version="1.1" xmlns="http://www.w3.org/2000/svg" xmlns:xlink="http://www.w3.org/1999/xlink" viewBox="0 0 32 32">
  <path d="M0.266 13.098c-0.356 1.93-0.357 3.92 0.007 5.866l3.837-2.988-3.844-2.878z"></path>
  <path d="M22.718 1.476c-4.453-2.056-9.723-1.996-14.201 0.379l6.994 5.237 7.207-5.616z"></path>
  <path d="M31.561 12.265l-4.479 3.489 4.595 3.44c0.462-2.276 0.431-4.644-0.116-6.929z"></path>
  <path d="M8.573 30.176c4.51 2.359 9.984 2.467 14.644 0.105l-7.537-5.643-7.107 5.538z"></path>
  <path d="M7.368 13.437l-5.803-4.344c-0.298 0.623-0.554 1.262-0.768 1.914l4.942 3.7 1.629-1.27z"></path>
  <path d="M17.309 23.369l7.761 5.811c0.258-0.178 0.513-0.364 0.763-0.559 0.296-0.231 0.582-0.47 0.857-0.718l-7.751-5.804-1.629 1.27z"></path>
  <path d="M10.625 10.899l-6.899-5.166c-0.43 0.513-0.824 1.049-1.181 1.604l6.452 4.831 1.628-1.269z"></path>
  <path d="M20.568 20.83l7.533 5.641c0.438-0.506 0.842-1.035 1.207-1.584l-7.112-5.326-1.629 1.269z"></path>
  <path d="M13.883 8.36l-7.184-5.378c-0.18 0.128-0.357 0.26-0.533 0.397-0.369 0.288-0.721 0.588-1.058 0.901l7.146 5.35 1.629-1.27z"></path>
  <path d="M23.825 18.293l6.491 4.861c0.307-0.616 0.573-1.248 0.796-1.893l-5.657-4.236-1.629 1.268z"></path>
  <path d="M24.622 2.519l-23.803 18.545c0.217 0.65 0.478 1.29 0.781 1.917l24.689-19.236c-0.532-0.448-1.090-0.857-1.667-1.225z"></path>
  <path d="M28.621 6.167c-0.28-0.359-0.572-0.702-0.874-1.030l-25.153 19.596c0.244 0.374 0.505 0.742 0.785 1.101 0.132 0.17 0.268 0.334 0.406 0.497l25.22-19.651c-0.125-0.173-0.25-0.344-0.384-0.514z"></path>
  <path d="M30.068 8.378l-24.9 19.4c0.506 0.466 1.037 0.896 1.59 1.287l24.17-18.832c-0.245-0.631-0.532-1.251-0.86-1.855z"></path>
</svg>
