<svg version="1.1" xmlns="http://www.w3.org/2000/svg" xmlns:xlink="http://www.w3.org/1999/xlink" viewBox="0 0 33 32">
  <path d="M22.779 32c-0.488 0-0.978 0-1.466 0-6.449-0.763-11.174-3.757-14.611-7.591-3.449-3.845-6.173-8.793-6.702-15.444 0-0.596 0-1.191 0-1.786 0.12-1.211 0.715-2.038 1.403-2.743 0.855-0.876 2.144-2.002 3.317-2.042 0.867-0.029 2.341 0.593 2.935 1.402 0.51 0.697 0.782 2.091 1.019 3.127 0.243 1.048 0.789 2.564 0.638 3.573-0.231 1.573-2.32 2.24-2.934 3.382 2.040 4.893 5.377 8.49 9.826 10.974 1.114-0.611 2.098-2.451 3.639-2.488 0.563-0.016 1.278 0.275 1.849 0.447 0.627 0.188 1.172 0.429 1.724 0.637 0.927 0.35 2.574 0.817 3.127 1.595 0.569 0.802 0.896 2.115 0.764 2.934-0.255 1.623-2.929 3.423-4.529 4.023z"></path>
  <path d="M16.477 2.009c7.823 0 14.165 6.341 14.165 14.165h2.011c0-8.932-7.241-16.174-16.176-16.174v2.009z"></path>
  <path d="M16.477 12.266v2.041c1.032 0 1.869 0.836 1.869 1.867h2.042c-0.001-2.159-1.75-3.908-3.911-3.908z"></path>
  <path d="M16.477 8.214c4.399 0 7.964 3.564 7.964 7.962h2.088c0-5.55-4.5-10.049-10.053-10.049v2.087z"></path>
</svg>
