<svg version="1.1" xmlns="http://www.w3.org/2000/svg" xmlns:xlink="http://www.w3.org/1999/xlink" viewBox="0 0 33 32">
  <path d="M32.648 18.218c-0.020-3.592-0.516-7.182-0.455-10.702-0.035-1.182-0.129-2.302-0.228-3.417-0.157-0.45-0.166-1.048-0.228-1.593-0.39-0.255-0.333-0.96-0.684-1.252-0.634-0.349-1.801-0.171-2.616-0.33-0.985-0.039-1.881-0.172-2.848-0.23-2.904-0.151-5.959-0.114-8.994-0.114-3.001 0-5.931-0.218-8.542-0.568h-3.303c-0.146 0.006-0.157 0.147-0.341 0.114-0.898 0.051-1.615 0.282-2.392 0.455-0.315 0.178-0.631 0.353-1.024 0.456-0.204 0.288-0.769 0.218-0.91 0.568-0.279 0.318 0.278 0.676 0 0.91v1.366c0.26 0.195 0.041 0.87 0.112 1.252v1.48c-0.025 1.921 0.201 3.595 0.114 5.58 0.7 4.143 0.561 9.805 0.114 14.119 0.232 0.868 0.544 1.657 0.682 2.619 0.384 0.718 0.502 1.699 1.024 2.28 0.753 0.309 1.849 0.279 2.847 0.343 0.574 0.147 1 0.439 1.71 0.45 4.264-0.315 8.244-0.231 12.64-0.343 4.056 0.36 8.703 0.282 12.412-0.342 0.292-0.201 0.192-0.793 0.342-1.14-0.084-0.577 0.31-0.673 0.342-1.138 0.197-3.592 0.246-7.183 0.225-10.824zM13.176 8.881c1.135-0.229 2.22-0.511 3.643-0.456 1.065 0.114 1.93 0.425 2.845 0.684 0.174 0.276-0.364 0.82 0.23 1.026v0.114c0.088 0.025 0.224 0.003 0.227 0.114 0.667 0.053 1.191 0.251 1.594 0.568 0.675 0.082 0.804 0.714 1.707 0.45-0.137 0.319-0.126 0.786-0.113 1.252 0.486 1.774 0.712 4.215 0.454 6.378-0.246 0.244-0.323 0.663-0.454 1.024-0.466 0.483-0.721 1.177-1.254 1.593-0.142 0.354-0.375 0.612-0.681 0.799-0.174 0.32-0.309 0.678-0.685 0.795-0.447 0.244-0.865 0.017-1.251-0.114-0.669 0.243-1.356 0.468-1.822 0.91-1.224-0.144-2.472-0.262-3.645-0.456-0.363-0.209-0.73-0.41-1.252-0.457-0.341-0.306-0.744-0.546-1.254-0.682-0.152-0.191-0.505-0.177-0.682-0.343-0.297-0.044-0.344-0.34-0.684-0.343-0.177-0.618-0.664-0.927-0.798-1.593-0.339-0.497-0.462-1.207-0.682-1.822-0.065-2.151 0.136-4.038 0.568-5.694 0.519-0.886 1.168-1.641 1.707-2.505 0.373 0.031 0.547-0.135 0.57-0.456 0.459 0.079 0.651-0.108 1.026-0.113 0.386 0.012 0.403-0.463 0.687-0.673zM10.671 4.782c-0.175-0.394-0.099-1.036-0.113-1.593-0.011-0.428 0.417-0.418 0.456-0.798-0.005-0.111-0.139-0.088-0.228-0.114 0.189-0.219 1.051-0.146 1.251 0 0.198 0.805-0.531 0.682-0.796 1.026 0.017 0.251 0.483 0.048 0.684 0.114 0.043 1.281-0.088 2.244 0 3.303h-0.684c-0.011 0.351 0.344 0.339 0.684 0.342-0.088 0.429 0.138 0.544 0.113 0.91-0.339 0.229-1.074 0.063-1.593 0.113-0.155-0.891 0.352-2.062 0.226-3.303zM9.646 2.391c0.132-0.019 0.201 0.024 0.226 0.114 0.268 0.38 0.015 1.024-0.114 1.366-0.259-0.268-0.039-1.023-0.113-1.48zM9.874 5.124c-0.198-0.104-0.252-0.356-0.228-0.684 0.198 0.106 0.251 0.357 0.228 0.684zM9.874 7.174c-0.087 0.208-0.123-0.067-0.114-0.228 0.087-0.208 0.121 0.067 0.114 0.228zM9.646 7.516c0.262-0.036 0.126 0.329 0.342 0.34-0.014 0.29-0.425 0.268-0.57 0.115 0.059-0.168 0.169-0.29 0.228-0.456zM6.115 5.692c0.009-0.162 0.019-0.321-0.114-0.342-0.109-1.099 0.195-2.122 0-2.959 0.375-0.232 1.153-0.063 1.708-0.115v1.708c-0.132 0.096-0.304 0.151-0.568 0.116-0.081 0.42 0.486 0.197 0.568 0.456 0.012 1.279-0.084 2.665 0.228 3.643-0.847-0.088-1.359 0.161-2.163 0.114 0.146-0.918-0.029-2.152 0.796-2.391-0.018-0.212-0.386-0.071-0.456-0.229zM5.319 5.692c-0.306 0.032-0.325-0.801-0.115-0.91 0.492 0.009 0.373 0.751 0.115 0.91zM5.091 7.174c0.115-0.468 0.051-0.456 0.112-1.024 0.342 0.019 0.39 1.155-0.112 1.024zM5.433 4.099c-0.394 0.081-0.409-0.399-0.229-0.57 0.394-0.079 0.408 0.401 0.229 0.57zM5.433 2.391c0.050 0.239-0.078 0.301-0.114 0.456-0.264 0.034-0.126-0.329-0.343-0.344 0.037-0.153 0.287-0.093 0.457-0.112zM5.091 7.972c0.222-0.046 0.165 0.517-0.114 0.34 0.060-0.093 0.119-0.186 0.114-0.341zM4.065 2.391c0.043 0.389-0.657 0.48-0.568 0h0.568zM2.584 2.505c-0.051 0.329-0.489 0.268-0.568 0.568-0.321-0.255 0.126-0.702 0.568-0.568zM1.902 3.643c0.339-0.308 0.676-0.615 1.026-0.91-0.031-0.184 0.107-0.196 0.114-0.342h0.344c0.153 0.571-0.392 0.444-0.458 0.796 0.031 0.183-0.108 0.196-0.112 0.341 0.030 0.502 0.181 0.882 0.112 1.482-0.405 0.012-0.414 0.42-0.91 0.341 0.033-0.642-0.203-1.011-0.115-1.707zM2.016 8.541v-2.391c0.292-0.277 0.594-0.546 0.91-0.798 0.442 0.733 0.268 2.088 0.682 2.845-0.413 0.236-1.125 0.166-1.593 0.344zM29.347 25.166c-0.163 1.431-0.237 2.952-0.568 4.213-4.335 0.184-9.030 0.008-13.324 0.23-0.299 0.067-0.409-0.047-0.344-0.343-0.38 0-0.387 0.37-0.796 0.343 0.302-0.504 0.657-1.347 0.226-1.936-1.195 0.020-1.195 1.231-1.707 1.936-1.029-0.079-1.705 0.191-2.734 0.113 0.27-1.057 1.125-1.531 1.366-2.617-0.592-0.825-1.483 0.207-1.821 0.682-0.306 0.72-0.835 1.215-1.14 1.935h-1.477c0.357-0.703 0.733-1.389 1.138-2.049 0.257-0.768 0.937-1.111 1.024-2.050-0.236-0.42-0.63-0.044-1.024 0-0.184 0.273-0.408 0.502-0.57 0.796-0.348 0.564-0.751 1.071-1.026 1.71-0.271 0.312-0.502 0.005-0.795 0.34-0.583 0.407-0.871 1.104-1.482 1.48-0.261-0.090 0.059-0.534 0.229-0.57 0.067-0.271-0.144-0.825 0.112-0.91 0.095-0.549 0.318-0.97 0.568-1.365 0.178-1.113 0.781-1.798 1.026-2.847-0.838 0.148-1.011 0.964-1.482 1.48-0.318 0.667-0.813 1.158-1.024 1.936-0.261-0.197-0.042-0.87-0.114-1.254 0.183-0.879 0.447-1.678 0.57-2.619 0.2-0.33 0.26-0.802 0.342-1.251 0.252-0.314 0.069-0.915-0.115-1.141-0.339 0.041-0.561 0.2-0.682 0.456-0.288-0.048-0.289 0.759-0.456 0.456-0.067-3.88-0.676-7.218-0.684-11.157 0.039-0.496-0.275-0.636-0.342-1.027 2.443 0.042 4.681 0.136 7.174 0.344-0.133 0.209-0.299 0.386-0.456 0.568-0.216 0.105-0.339 0.259-0.567 0.456-0.906 2.479-1.462 5.976-0.91 9.225 0.343 0.87 0.883 1.543 1.479 2.161 1.36 0.727 2.452 1.723 3.759 2.506 2.551 0.541 5.76 0.553 8.311 0 0.354-0.18 0.726-0.339 1.027-0.57 2.046-1.863 4.129-3.688 4.441-7.288v-2.050c-0.296-2.397-1.032-4.357-2.62-5.466 0.497-0.33 1.648 0.065 2.505 0.114 0.334 0.020 0.67 0.021 1.026 0 0.612-0.036 1.392-0.082 2.164 0 0.216 0.28 0.169 0.816 0.342 1.14-0.093 2.526-0.288 4.95-0.228 7.63 0.154 0.681 0.191 1.479 0.343 2.161-0.137 1.459-0.355 2.835-0.685 4.098zM29.915 8.427c-0.958-0.18-1.848-0.426-2.845-0.568 0.108-0.5 1.198-0.015 1.48-0.342 0.577-0.335 0.442-1.38 0.456-2.265 0.048-0.522 0.171-0.966 0.114-1.594-0.601-1.426-2.674-0.631-4.329-0.682-0.337 1.077-0.705 2.7-0.456 3.985 0.253 0.735 1.536 0.438 2.278 0.684-0.21 0.498-1.032 0.085-1.48 0.114-0.444-0.125-1.060-0.078-1.479-0.226-3.427 0.117-6.426 0.006-9.793 0.226 0.175-1.872 0.095-3.697-0.114-5.467h4.668c-0.516 0.546-1.368 0.76-1.935 1.252-0.66 0.366-1.291 0.757-1.708 1.366 0.373 0.201 0.802-0.367 1.138-0.568 0.532-0.111 0.718-0.571 1.252-0.682 0.634-0.657 1.644-0.937 2.505-1.368 0.567-0.033 1.045 0.019 1.48 0.115 1.924 0.010 3.684 0.189 5.694 0.114 0.921 0.217 2.175 0.103 2.961 0.456 0.16 0.447 0.346 0.868 0.457 1.366 0.012 1.479-0.224 2.724-0.345 4.084zM21.148 2.847c0.165-0.071-0.014-0.138 0 0v0zM21.148 2.847c-0.793 0.231-1.528 0.522-2.050 1.023 0.726-0.297 1.588-0.459 2.050-1.023zM22.741 3.757c0.166-0.071-0.011-0.136 0 0v0zM20.122 5.124c1.090-0.237 1.771-0.886 2.619-1.366-0.655 0.029-0.888 0.48-1.48 0.568-0.323 0.325-0.9 0.39-1.138 0.798zM19.097 3.871c-0.166 0.071 0.011 0.138 0 0v0zM18.073 4.782c0.165-0.069-0.012-0.138 0 0v0zM17.96 4.896c0.095 0.021 0.105-0.045 0.113-0.114-0.096-0.021-0.108 0.045-0.113 0.114zM17.845 5.010c0.096 0.021 0.108-0.045 0.116-0.114-0.101-0.019-0.108 0.043-0.116 0.114zM16.594 5.922c0.519-0.201 0.919-0.522 1.251-0.91-0.522 0.2-0.922 0.52-1.251 0.91zM20.008 7.402c0.799-0.074 1.123-0.624 1.822-0.796 0.426-0.447 1.176-0.571 1.48-1.14-0.84 0.035-1.149 0.598-1.824 0.796-0.426 0.446-1.126 0.619-1.479 1.14zM16.594 5.922c-0.476-0.111-0.024 0.341 0 0v0zM15.794 6.49c0.031 0.032 0.172-0.056 0.114-0.115-0.031-0.030-0.174 0.057-0.114 0.115zM20.008 7.402c-0.165 0.071 0.011 0.136 0 0v0zM18.298 10.134c-0.334-0.347-1.014-0.35-1.479-0.568-1.045-0.057-1.834 0.139-2.619 0.344-0.456 0.226-0.91 0.456-1.365 0.681-0.399 0.249-0.666 0.625-1.14 0.798-0.307 0.338-0.528 0.765-1.026 0.91-0.006 0.335-0.259 0.421-0.456 0.568-0.133 0.172-0.141 0.468-0.341 0.571-0.011 0.18 0.054 0.435-0.114 0.454 0.162 2.268 0.437 4.422 1.024 6.265 0.431 0.934 1.462 1.269 2.163 1.935 0.883 0.445 1.992 0.666 3.189 0.796 0.416-0.078 0.829-0.157 1.366-0.114 1.813-0.314 3.147-1.104 4.215-2.161 0.15-0.422 0.378-0.762 0.682-1.026-0.381-1.006 0.439-1.647 0.682-2.385 0.003-2.016-0.302-3.72-0.91-5.122-0.384-0.868-1.38-1.126-2.049-1.708-0.088-0.027-0.225-0.005-0.227-0.116-0.404-0.204-1.099-0.358-1.597-0.123zM13.176 16.624c-0.169-0.095-0.164-0.366-0.228-0.568 0.384-0.117 0.177 0.355 0.228 0.568zM13.29 17.081c0.062-0.175 0.118-0.009 0.114 0.113-0.060 0.177-0.118 0.008-0.114-0.113zM13.974 14.005c0.023-0.129 0.113-0.063 0.113 0-0.021 0.13-0.113 0.065-0.113 0zM16.479 10.818c-0.305 0.387 0.061 0.864 0.116 1.254-0.457-0.059-0.861-1.33-0.116-1.254zM17.047 16.739c-0.060-0.057 0.082-0.145 0.114-0.114 0.060 0.057-0.081 0.145-0.114 0.114zM18.185 21.065c0.051-0.163 0.099 0.012 0.228 0-0.027 0.145-0.225 0.116-0.228 0zM21.487 17.194c-0.349-0.085-0.218 0.312-0.568 0.228 0.104-0.238 0.177-0.507 0.343-0.682 0.201 0.029 0.258 0.195 0.225 0.454zM19.781 11.5c0.317 0.178 0.661 0.325 0.909 0.571 0.128 0.329 0.364 0.544 0.57 0.793 0.087 1.167 0.268 2.238 0.227 3.531-0.386 0.148-0.657 0.407-1.024 0.571-1.17-0.009-2.037-0.318-2.845-0.684-0.256-0.389-0.532-0.757-0.798-1.138v-1.593c0.255-0.277 0.479-0.586 0.684-0.91 0.342-0.191 0.762-0.302 0.681-0.91-0.057-0.093-0.117-0.186-0.113-0.344 0.237 0.068 0.367 0.239 0.568 0.344 0.485 0.025 0.615-0.3 1.141-0.231z"></path>
</svg>
