<svg version="1.1" xmlns="http://www.w3.org/2000/svg" xmlns:xlink="http://www.w3.org/1999/xlink" viewBox="0 0 27 32">
  <path d="M13.714 31.999c7.573 0 13.714-6.142 13.714-13.714-7.573 0-13.714 6.141-13.714 13.714zM3.969 14.095c0 2.103 1.706 3.81 3.809 3.81 0.8 0 1.547-0.252 2.156-0.671l-0.031 0.289c0 2.103 1.707 3.81 3.81 3.81s3.809-1.707 3.809-3.81l-0.031-0.289c0.617 0.426 1.357 0.671 2.157 0.671 2.103 0 3.809-1.707 3.809-3.81 0-1.517-0.89-2.819-2.179-3.429 1.28-0.609 2.179-1.912 2.179-3.429 0-2.103-1.706-3.809-3.809-3.809-0.8 0-1.547 0.251-2.157 0.67l0.032-0.289c0-2.103-1.706-3.809-3.809-3.809s-3.81 1.707-3.81 3.809l0.031 0.289c-0.617-0.426-1.356-0.67-2.156-0.67-2.103 0-3.809 1.707-3.809 3.809 0 1.517 0.891 2.819 2.179 3.429-1.289 0.61-2.18 1.912-2.18 3.429zM13.714 6.857c2.103 0 3.809 1.706 3.809 3.809s-1.706 3.809-3.809 3.809-3.81-1.707-3.81-3.809c0-2.103 1.707-3.809 3.81-3.809zM0 18.285c0 7.573 6.141 13.714 13.714 13.714 0-7.573-6.141-13.714-13.714-13.714z"></path>
</svg>
