<svg version="1.1" xmlns="http://www.w3.org/2000/svg" xmlns:xlink="http://www.w3.org/1999/xlink" viewBox="0 0 34 32">
  <path d="M33.182 12.273h-5.349l-5.784-11.568c-0.314-0.628-1.076-0.883-1.708-0.569-0.63 0.316-0.884 1.080-0.569 1.708l5.214 10.429h-15.514l5.215-10.429c0.314-0.63 0.059-1.394-0.569-1.708s-1.394-0.059-1.708 0.569l-5.784 11.568h-5.349c-0.703 0-1.273 0.57-1.273 1.273s0.57 1.273 1.273 1.273h0.267l1.452 5.078c-0.317 0.233-0.536 0.589-0.536 1.010 0 0.672 0.525 1.205 1.183 1.255l2.811 9.838h21.556l2.811-9.838c0.659-0.048 1.185-0.584 1.185-1.255 0-0.423-0.219-0.779-0.536-1.012l1.45-5.078h0.267c0.703 0 1.273-0.57 1.273-1.273s-0.574-1.272-1.277-1.272zM26.084 29.455h-17.712l-2.078-7.273h21.868l-2.078 7.273zM28.89 19.634h-23.325l-1.375-4.815h26.075l-1.375 4.815z" />
</svg>
