<?xml version="1.0" encoding="UTF-8"?><!DOCTYPE svg PUBLIC "-//W3C//DTD SVG 1.1//EN" "http://www.w3.org/Graphics/SVG/1.1/DTD/svg11.dtd"><svg xmlns="http://www.w3.org/2000/svg"><symbol id="icon-cart" viewBox="0 0 34 32"><path d="M33.182 12.273h-5.349L22.049.705a1.273 1.273 0 0 0-2.277 1.139l5.214 10.429H9.472l5.215-10.429A1.274 1.274 0 0 0 12.41.705L6.626 12.273H1.277a1.273 1.273 0 0 0 0 2.546h.267l1.452 5.078c-.317.233-.536.589-.536 1.01 0 .672.525 1.205 1.183 1.255L6.454 32H28.01l2.811-9.838a1.265 1.265 0 0 0 1.185-1.255c0-.423-.219-.779-.536-1.012l1.45-5.078h.267a1.273 1.273 0 1 0-.004-2.545zm-7.098 17.182H8.372l-2.078-7.273h21.868l-2.078 7.273zm2.806-9.821H5.565L4.19 14.819h26.075l-1.375 4.815z"/></symbol><symbol id="icon-fb" viewBox="0 0 17 32"><path d="M13.464 5.994c1.184.033 2.301 0 3.095-.346.451-.944.642-2.14.715-3.451-.219-.017-.072-.389-.239-.461-.033-.233-.321-.225-.357-.46-.32-.191-.528-.487-.835-.69-.839-.187-1.662-.387-2.498-.576-.98.051-2.188-.119-2.979.115C7.342.079 5.752 1.418 4.295 2.887c-.027.09-.003.227-.121.23-.663 1.832-.144 4.18-.236 6.443.114.503.124 1.106.236 1.611-1.152.342-2.554.447-3.928.576-.366.374-.205 1.257-.238 1.955.098.673.321 1.224.477 1.841.244.223.688.457.952.575.075.033.082.095.119.115.584.309 1.675.009 2.618.115-.157 2.284.296 4.52 0 6.557.008.378.341.441.24.921-.001 1.112-.077 2.297.24 3.106-.331.525-.574 1.134-.479 2.071.141.018.132.181.121.345-.087.543.742.202.595.806.187.526-.494.212-.477.575v1.034c.612.329 1.688.21 2.618.23 1.048-.484 2.526-.553 3.215-1.381.53.271 1.058-.016 1.429-.23-.021-.364.315-.384.237-.806-.005-.379-.2-.573-.119-1.034v-3.336c-.238-2.647-.055-5.701-.357-8.285 1.025-.121 2.213-.087 2.976-.459.412-.521.435-1.42.596-2.188.204-.261.255-.673.238-1.15.219-.246.079-.842.12-1.265-.163-.687-.194-1.501-.952-1.605-1.021-.271-2.359.687-3.453.345.057-1.309-.338-2.704 0-3.911.861-.209 1.669-.462 2.501-.695zm-4.408 5.522c.135.293.293.561.478.806.091.025.234.003.237.117 1.376.065 2.539-.08 3.574-.345 0 1.152-.313 2.001-.598 2.877-.764.052-1.694.346-2.26.229-.319.191-.429.584-.716.806-.057.509.164.571 0 .92-.232.158-.063.705-.237.919v1.727c.098.324-.169.298-.12.574v4.027c-.098.324.169.298.12.575v3.451c.073.313-.152.913.119 1.034-.081.42-.476-.024-.951.115-.61.141-1.069.426-1.787.462.135-.408.369-.718.359-1.266.057-.44-.421-.36-.596-.566.223-.744.649-1.29.834-2.07.227-.595.824-1.499.358-2.071-.603-.121-.601.338-.954.459-.025.089-.002.226-.119.23-.027.089-.003.226-.119.23.012.139-.174.072 0 0 .025-.09.002-.227.119-.23.027-.089.002-.227.119-.23v-.345c.425-.664.774-1.402.954-2.301.22-.323.327-.757.476-1.151.18-.302.393-1.003.12-1.38-.597.038-.919.341-1.074.805-.369-.218.186-.501.12-.805.159-.267.195-.653.357-.92.233-.477.651-1.505 0-1.843-.506-.027-.707.239-.835.575-.247.221-.496.442-.596.806-.431-.081-.165-.839-.238-1.266-.077-.6.141-1.038 0-1.38-.646-.922-2.339-.121-3.691-.345-.125-.354-.256-1.136-.12-1.38 1.206-.102 2.862.232 3.691-.23.028-.09.003-.227.12-.23.109-.835-.313-1.155-.595-1.612.268-.931.046-2.332.12-3.451.269-.163.379-.478.595-.69.129-1.103.777-1.704.834-2.875-.315.001-.701-.064-.715.23-.349-.132-.441.553-.595.23-.129-.625.284-.723.357-1.151a30.865 30.865 0 0 1 2.143-1.38c2.01-.282 5.366-.518 7.026.229.059.711-.331.986-.239 1.727h-1.785c-1.261.277-2.294.776-3.453 1.151-.277.076-.319.382-.596.46-.042.457-.26.746-.359 1.15-.091 1.652.154 2.989.118 4.593z"/></symbol><symbol id="icon-feature-1" viewBox="0 0 27 32"><path d="M13.714 31.999c7.573 0 13.714-6.142 13.714-13.714-7.573 0-13.714 6.141-13.714 13.714zM3.969 14.095a3.81 3.81 0 0 0 3.809 3.81c.8 0 1.547-.252 2.156-.671l-.031.289a3.81 3.81 0 0 0 7.619 0l-.031-.289a3.81 3.81 0 0 0 5.966-3.139 3.79 3.79 0 0 0-2.179-3.429 3.804 3.804 0 0 0 2.179-3.429 3.81 3.81 0 0 0-5.966-3.139l.032-.289a3.81 3.81 0 0 0-7.619 0l.031.289A3.81 3.81 0 0 0 3.97 7.237c0 1.517.891 2.819 2.179 3.429a3.79 3.79 0 0 0-2.18 3.429zm9.745-7.238a3.81 3.81 0 1 1-.002 7.62 3.81 3.81 0 0 1 .002-7.62zM0 18.285c0 7.573 6.141 13.714 13.714 13.714 0-7.573-6.141-13.714-13.714-13.714z"/></symbol><symbol id="icon-feature-2" viewBox="0 0 55 32"><path d="M49.958 0H4.571A4.572 4.572 0 0 0 0 4.572v22.855a4.572 4.572 0 0 0 4.571 4.572h45.387a4.573 4.573 0 0 0 4.572-4.572V4.572A4.573 4.573 0 0 0 49.958 0zM3.539 29.211V3.181h47.068v26.03H3.539z"/><path d="M8.111 24.64h37.928V7.753H8.111V24.64zM27.265 9.975a6.223 6.223 0 1 1 0 12.445 6.223 6.223 0 0 1 0-12.445z"/></symbol><symbol id="icon-feature-3" viewBox="0 0 38 32"><path d="M37.965 10.036C37.965 4.493 33.471.001 27.93.001c-3.911 0-7.292 2.241-8.947 5.506C17.328 2.242 13.947.001 10.036.001 4.493.001.001 4.494.001 10.036c0 10.484 16.837 21.965 18.983 21.965 2.147 0 18.983-11.43 18.983-21.965z"/></symbol><symbol id="icon-feature-4" viewBox="0 0 32 32"><path d="M.266 13.098c-.356 1.93-.357 3.92.007 5.866l3.837-2.988-3.844-2.878zM22.718 1.476C18.265-.58 12.995-.52 8.517 1.855l6.994 5.237 7.207-5.616zM31.561 12.265l-4.479 3.489 4.595 3.44a16.059 16.059 0 0 0-.116-6.929zM8.573 30.176c4.51 2.359 9.984 2.467 14.644.105l-7.537-5.643-7.107 5.538zM7.368 13.437L1.565 9.093a15.99 15.99 0 0 0-.768 1.914l4.942 3.7 1.629-1.27zM17.309 23.369l7.761 5.811a16.174 16.174 0 0 0 1.62-1.277l-7.751-5.804-1.629 1.27zM10.625 10.899L3.726 5.733c-.43.513-.824 1.049-1.181 1.604l6.452 4.831 1.628-1.269zM20.568 20.83l7.533 5.641a15.73 15.73 0 0 0 1.207-1.584l-7.112-5.326-1.629 1.269zM13.883 8.36L6.699 2.982A15.327 15.327 0 0 0 5.108 4.28l7.146 5.35 1.629-1.27zM23.825 18.293l6.491 4.861c.307-.616.573-1.248.796-1.893l-5.657-4.236-1.629 1.268zM24.622 2.519L.819 21.064c.217.65.478 1.29.781 1.917L26.289 3.745a15.673 15.673 0 0 0-1.667-1.225zM28.621 6.167a16.52 16.52 0 0 0-.874-1.03L2.594 24.733a16.037 16.037 0 0 0 1.191 1.598L29.005 6.68c-.125-.173-.25-.344-.384-.514zM30.068 8.378l-24.9 19.4a15.89 15.89 0 0 0 1.59 1.287l24.17-18.832a16.097 16.097 0 0 0-.86-1.855z"/></symbol><symbol id="icon-feature-5" viewBox="0 0 75 32"><path d="M55.644 7.884c-5.034-1.34-10.82-2.301-17.059-2.3-3.99.001-7.532.335-10.642.86L18.579.001.005.008l8.021 8.536h11.66c-6.322 2.206-9.33 4.852-9.33 4.852l.003 5.213s3.193 2.639 9.567 4.856l-11.902-.007-8.021 8.541 18.572.003 9.408-6.476c3.121.549 6.656.893 10.602.894 6.242-.001 12.025-.962 17.061-2.301-1.623-2.45-2.643-5.167-2.647-8.112.004-2.955 1.019-5.676 2.646-8.123zM60.368 9.312c-1.772 2.215-2.718 4.486-2.712 6.681-.01 2.204.934 4.469 2.716 6.69 8.833-2.984 14.382-6.682 14.382-6.682s-5.547-3.699-14.386-6.689z"/></symbol><symbol id="icon-feature-6" viewBox="0 0 32 32"><path d="M2.852 32h12.317V18.298H2.852V32zm27.76-23.267h-7.225c.513-.263.969-.541 1.375-.832 1.564-1.116 2.388-2.532 2.384-3.939.002-1.151-.548-2.169-1.339-2.858A4.519 4.519 0 0 0 22.836 0c-1.202-.001-2.317.415-3.27 1.053-1.437.964-2.567 2.414-3.373 4.006-.038.078-.077.155-.113.232a12.755 12.755 0 0 0-1.025-1.765c-.681-.97-1.5-1.832-2.46-2.473C11.639.417 10.523 0 9.323 0 8.128.004 7.035.506 6.215 1.276c-.816.771-1.389 1.857-1.391 3.088a4.036 4.036 0 0 0 .639 2.155c.544.859 1.403 1.604 2.594 2.214H1.568c-.865 0-1.567.701-1.567 1.566v5.809h15.166V8.732h1.845v7.376h15.166v-5.809a1.561 1.561 0 0 0-1.564-1.566zM8.585 6.429c-.613-.385-.985-.773-1.202-1.118-.217-.349-.29-.652-.292-.949-.004-.496.244-1.026.681-1.439.43-.409 1.013-.657 1.539-.657h.013c.675 0 1.346.228 2.015.673 1.003.661 1.945 1.822 2.605 3.139.337.666.6 1.369.777 2.056-3.036-.316-5.002-.987-6.137-1.705zm10.379-1.602c.549-.785 1.192-1.444 1.859-1.887.67-.444 1.342-.673 2.016-.673h.006c.565 0 1.1.217 1.472.542.371.331.562.728.564 1.153-.004.504-.268 1.24-1.445 2.1-1.121.813-3.055 1.648-6.035 2.231a10.411 10.411 0 0 1 1.563-3.466zM17.014 32h12.319V18.298H17.014V32z"/></symbol><symbol id="icon-htmlacademy" viewBox="0 0 26.943 34.09"><path d="M13.62.017L13.472 0 0 1.412v24.66l13.473 8.018 13.43-7.99.042-.025V1.412L13.62.017zm11.4 12.11L13.494 5.334V5.23l-.088.05-.088-.056v.11L1.924 12.117v-8.97l11.548-1.213L25.02 3.147v8.98zm-11.615-5.34L24.923 13.5l-4.48 2.64-7.092-4.22-.013 1.414 5.904 3.513-.86.507-5.03-2.992-.013 1.415 3.827 2.275-.782.523-3.03-1.787-.015 1.413 1.853 1.092-1.8 1.08-11.356-6.75 11.37-6.835zm-11.48 8.34l11.41 6.79.017 1.045-7.942-4.728-.015 1.416 7.98 4.795.017 1.076-7.973-4.74-.014 1.415 8.02 4.822.047.025 8.143-4.872-.01-5.177 3.414-2.036v10.02L13.472 31.85 1.925 24.98v-9.853z"/></symbol><symbol id="icon-insta" viewBox="0 0 33 32"><path d="M32.648 18.218c-.02-3.592-.516-7.182-.455-10.702a57.223 57.223 0 0 0-.228-3.417c-.157-.45-.166-1.048-.228-1.593-.39-.255-.333-.96-.684-1.252-.634-.349-1.801-.171-2.616-.33-.985-.039-1.881-.172-2.848-.23C22.685.543 19.63.58 16.595.58A65.13 65.13 0 0 1 8.053.012H4.75c-.146.006-.157.147-.341.114-.898.051-1.615.282-2.392.455-.315.178-.631.353-1.024.456-.204.288-.769.218-.91.568-.279.318.278.676 0 .91v1.366c.26.195.041.87.112 1.252v1.48c-.025 1.921.201 3.595.114 5.58.7 4.143.561 9.805.114 14.119.232.868.544 1.657.682 2.619.384.718.502 1.699 1.024 2.28.753.309 1.849.279 2.847.343.574.147 1 .439 1.71.45 4.264-.315 8.244-.231 12.64-.343 4.056.36 8.703.282 12.412-.342.292-.201.192-.793.342-1.14-.084-.577.31-.673.342-1.138.197-3.592.246-7.183.225-10.824zM13.176 8.881c1.135-.229 2.22-.511 3.643-.456 1.065.114 1.93.425 2.845.684.174.276-.364.82.23 1.026v.114c.088.025.224.003.227.114.667.053 1.191.251 1.594.568.675.082.804.714 1.707.45-.137.319-.126.786-.113 1.252.486 1.774.712 4.215.454 6.378-.246.244-.323.663-.454 1.024-.466.483-.721 1.177-1.254 1.593a1.62 1.62 0 0 1-.681.799c-.174.32-.309.678-.685.795-.447.244-.865.017-1.251-.114-.669.243-1.356.468-1.822.91-1.224-.144-2.472-.262-3.645-.456-.363-.209-.73-.41-1.252-.457a2.992 2.992 0 0 0-1.254-.682c-.152-.191-.505-.177-.682-.343-.297-.044-.344-.34-.684-.343-.177-.618-.664-.927-.798-1.593-.339-.497-.462-1.207-.682-1.822-.065-2.151.136-4.038.568-5.694.519-.886 1.168-1.641 1.707-2.505.373.031.547-.135.57-.456.459.079.651-.108 1.026-.113.386.012.403-.463.687-.673zm-2.505-4.099c-.175-.394-.099-1.036-.113-1.593-.011-.428.417-.418.456-.798-.005-.111-.139-.088-.228-.114.189-.219 1.051-.146 1.251 0 .198.805-.531.682-.796 1.026.017.251.483.048.684.114.043 1.281-.088 2.244 0 3.303h-.684c-.011.351.344.339.684.342-.088.429.138.544.113.91-.339.229-1.074.063-1.593.113-.155-.891.352-2.062.226-3.303zM9.646 2.391c.132-.019.201.024.226.114.268.38.015 1.024-.114 1.366-.259-.268-.039-1.023-.113-1.48zm.228 2.733c-.198-.104-.252-.356-.228-.684.198.106.251.357.228.684zm0 2.05c-.087.208-.123-.067-.114-.228.087-.208.121.067.114.228zm-.228.342c.262-.036.126.329.342.34-.014.29-.425.268-.57.115.059-.168.169-.29.228-.456zM6.115 5.692c.009-.162.019-.321-.114-.342-.109-1.099.195-2.122 0-2.959.375-.232 1.153-.063 1.708-.115v1.708c-.132.096-.304.151-.568.116-.081.42.486.197.568.456.012 1.279-.084 2.665.228 3.643-.847-.088-1.359.161-2.163.114.146-.918-.029-2.152.796-2.391-.018-.212-.386-.071-.456-.229zm-.796 0c-.306.032-.325-.801-.115-.91.492.009.373.751.115.91zm-.228 1.482c.115-.468.051-.456.112-1.024.342.019.39 1.155-.112 1.024zm.342-3.075c-.394.081-.409-.399-.229-.57.394-.079.408.401.229.57zm0-1.708c.05.239-.078.301-.114.456-.264.034-.126-.329-.343-.344.037-.153.287-.093.457-.112zm-.342 5.581c.222-.046.165.517-.114.34a.542.542 0 0 0 .114-.341zM4.065 2.391c.043.389-.657.48-.568 0h.568zm-1.481.114c-.051.329-.489.268-.568.568-.321-.255.126-.702.568-.568zm-.682 1.138c.339-.308.676-.615 1.026-.91-.031-.184.107-.196.114-.342h.344c.153.571-.392.444-.458.796.031.183-.108.196-.112.341.03.502.181.882.112 1.482-.405.012-.414.42-.91.341.033-.642-.203-1.011-.115-1.707zm.114 4.898V6.15c.292-.277.594-.546.91-.798.442.733.268 2.088.682 2.845-.413.236-1.125.166-1.593.344zm27.331 16.625c-.163 1.431-.237 2.952-.568 4.213-4.335.184-9.03.008-13.324.23-.299.067-.409-.047-.344-.343-.38 0-.387.37-.796.343.302-.504.657-1.347.226-1.936-1.195.02-1.195 1.231-1.707 1.936-1.029-.079-1.705.191-2.734.113.27-1.057 1.125-1.531 1.366-2.617-.592-.825-1.483.207-1.821.682-.306.72-.835 1.215-1.14 1.935H7.028a29.15 29.15 0 0 1 1.138-2.049c.257-.768.937-1.111 1.024-2.05-.236-.42-.63-.044-1.024 0-.184.273-.408.502-.57.796-.348.564-.751 1.071-1.026 1.71-.271.312-.502.005-.795.34-.583.407-.871 1.104-1.482 1.48-.261-.09.059-.534.229-.57.067-.271-.144-.825.112-.91.095-.549.318-.97.568-1.365.178-1.113.781-1.798 1.026-2.847-.838.148-1.011.964-1.482 1.48-.318.667-.813 1.158-1.024 1.936-.261-.197-.042-.87-.114-1.254.183-.879.447-1.678.57-2.619.2-.33.26-.802.342-1.251.252-.314.069-.915-.115-1.141-.339.041-.561.2-.682.456-.288-.048-.289.759-.456.456-.067-3.88-.676-7.218-.684-11.157.039-.496-.275-.636-.342-1.027 2.443.042 4.681.136 7.174.344-.133.209-.299.386-.456.568-.216.105-.339.259-.567.456-.906 2.479-1.462 5.976-.91 9.225.343.87.883 1.543 1.479 2.161 1.36.727 2.452 1.723 3.759 2.506 2.551.541 5.76.553 8.311 0 .354-.18.726-.339 1.027-.57 2.046-1.863 4.129-3.688 4.441-7.288v-2.05c-.296-2.397-1.032-4.357-2.62-5.466.497-.33 1.648.065 2.505.114.334.02.67.021 1.026 0 .612-.036 1.392-.082 2.164 0 .216.28.169.816.342 1.14-.093 2.526-.288 4.95-.228 7.63.154.681.191 1.479.343 2.161-.137 1.459-.355 2.835-.685 4.098zm.568-16.739c-.958-.18-1.848-.426-2.845-.568.108-.5 1.198-.015 1.48-.342.577-.335.442-1.38.456-2.265.048-.522.171-.966.114-1.594-.601-1.426-2.674-.631-4.329-.682-.337 1.077-.705 2.7-.456 3.985.253.735 1.536.438 2.278.684-.21.498-1.032.085-1.48.114-.444-.125-1.06-.078-1.479-.226-3.427.117-6.426.006-9.793.226.175-1.872.095-3.697-.114-5.467h4.668c-.516.546-1.368.76-1.935 1.252-.66.366-1.291.757-1.708 1.366.373.201.802-.367 1.138-.568.532-.111.718-.571 1.252-.682.634-.657 1.644-.937 2.505-1.368a5.297 5.297 0 0 1 1.48.115c1.924.01 3.684.189 5.694.114.921.217 2.175.103 2.961.456.16.447.346.868.457 1.366.012 1.479-.224 2.724-.345 4.084zm-8.767-5.58c.165-.071-.014-.138 0 0zm0 0c-.793.231-1.528.522-2.05 1.023.726-.297 1.588-.459 2.05-1.023zm1.593.91c.166-.071-.011-.136 0 0zm-2.619 1.367c1.09-.237 1.771-.886 2.619-1.366-.655.029-.888.48-1.48.568-.323.325-.9.39-1.138.798zm-1.025-1.253c-.166.071.011.138 0 0zm-1.024.911c.165-.069-.012-.138 0 0zm-.113.114c.095.021.105-.045.113-.114-.096-.021-.108.045-.113.114zm-.115.114c.096.021.108-.045.116-.114-.101-.019-.108.043-.116.114zm-1.251.912a3.101 3.101 0 0 0 1.251-.91c-.522.2-.922.52-1.251.91zm3.414 1.48c.799-.074 1.123-.624 1.822-.796.426-.447 1.176-.571 1.48-1.14-.84.035-1.149.598-1.824.796-.426.446-1.126.619-1.479 1.14zm-3.414-1.48c-.476-.111-.024.341 0 0zm-.8.568c.031.032.172-.056.114-.115-.031-.03-.174.057-.114.115zm4.214.912c-.165.071.011.136 0 0zm-1.71 2.732c-.334-.347-1.014-.35-1.479-.568-1.045-.057-1.834.139-2.619.344-.456.226-.91.456-1.365.681-.399.249-.666.625-1.14.798-.307.338-.528.765-1.026.91-.006.335-.259.421-.456.568-.133.172-.141.468-.341.571-.011.18.054.435-.114.454.162 2.268.437 4.422 1.024 6.265.431.934 1.462 1.269 2.163 1.935.883.445 1.992.666 3.189.796.416-.078.829-.157 1.366-.114 1.813-.314 3.147-1.104 4.215-2.161.15-.422.378-.762.682-1.026-.381-1.006.439-1.647.682-2.385.003-2.016-.302-3.72-.91-5.122-.384-.868-1.38-1.126-2.049-1.708-.088-.027-.225-.005-.227-.116-.404-.204-1.099-.358-1.597-.123zm-5.122 6.49c-.169-.095-.164-.366-.228-.568.384-.117.177.355.228.568zm.114.457c.062-.175.118-.009.114.113-.06.177-.118.008-.114-.113zm.684-3.076c.023-.129.113-.063.113 0-.021.13-.113.065-.113 0zm2.505-3.187c-.305.387.061.864.116 1.254-.457-.059-.861-1.33-.116-1.254zm.568 5.921c-.06-.057.082-.145.114-.114.06.057-.081.145-.114.114zm1.138 4.326c.051-.163.099.012.228 0-.027.145-.225.116-.228 0zm3.302-3.871c-.349-.085-.218.312-.568.228.104-.238.177-.507.343-.682.201.029.258.195.225.454zM19.781 11.5c.317.178.661.325.909.571.128.329.364.544.57.793.087 1.167.268 2.238.227 3.531-.386.148-.657.407-1.024.571-1.17-.009-2.037-.318-2.845-.684-.256-.389-.532-.757-.798-1.138v-1.593c.255-.277.479-.586.684-.91.342-.191.762-.302.681-.91-.057-.093-.117-.186-.113-.344.237.068.367.239.568.344.485.025.615-.3 1.141-.231z"/></symbol><symbol id="icon-interior" viewBox="0 0 21 32"><path d="M7.782 19.462c-.147.495-.126 1.123.014 1.866.253 1.351.865 3.097 1.209 4.958H11.6c.357-1.867.999-3.615 1.267-4.965.147-.741.169-1.364.021-1.855-.141-.461-.456-.83-1.036-1.181H8.777c-.551.348-.858.713-.995 1.176zM13.848 29.714H6.773c-.663 0-1.179.5-1.179 1.143V32h9.433v-1.143c0-.642-.516-1.143-1.179-1.143zM17.506 1.143h-6.015c0-.638-.52-1.143-1.179-1.143-.658 0-1.179.505-1.179 1.143H3.115L.001 14.226c.407-.236.815-.509 1.349-.509.697 0 1.15.419 1.499.705s.596.435.742.435c.15.001.394-.147.744-.429s.802-.696 1.495-.696c.692 0 1.147.413 1.497.694.351.281.595.431.744.431.075 0 .173-.037.297-.11s.272-.181.447-.321c.263-.211.584-.496 1.02-.624a1.64 1.64 0 0 1 .477-.07c.691 0 1.148.413 1.497.694s.594.431.744.431c.147-.001.393-.152.741-.436.351-.284.806-.701 1.5-.701s1.148.419 1.497.703c.175.142.324.251.447.324s.221.11.295.11c.148 0 .391-.15.739-.438.349-.287.803-.71 1.502-.71.535 0 .943.273 1.349.511L17.506 1.142zM12.061 27.428H8.542c-.337 0-.59.246-.59.572s.253.571.59.571h3.538c.336 0 .59-.246.59-.571a.569.569 0 0 0-.59-.572h-.018zM10.31 14.875c-.075 0-.173.038-.297.109-.081.048-.19.134-.292.21v1.913H10.9v-1.913c-.259-.194-.466-.319-.589-.319z"/></symbol><symbol id="icon-left-arrow" viewBox="0 0 62 32"><path d="M61.531 13.539H9.425L19.484 3.48 16.004 0 0 16.004 16.004 32l3.48-3.48L9.427 18.462h52.104z"/></symbol><symbol id="icon-mail" viewBox="0 0 32 32"><path d="M28 5H4a4 4 0 0 0-4 4v13a4 4 0 0 0 4 4h24a4 4 0 0 0 4-4V9a4 4 0 0 0-4-4zM2 10.25l6.999 5.25L2 20.75v-10.5zM30 22c0 1.104-.898 2-2 2H4c-1.103 0-2-.896-2-2l7.832-5.875 4.368 3.277a3 3 0 0 0 3.599 0l4.369-3.277L30 22zm0-1.25l-7-5.25 7-5.25v10.5zm-12.801-2.148c-.35.263-.763.4-1.199.4s-.851-.139-1.2-.4L10.665 15.5l-.833-.625L2 9.001V9c0-1.103.897-2 2-2h24c1.102 0 2 .897 2 2l-12.801 9.602z"/></symbol><symbol id="icon-phone" viewBox="0 0 33 32"><path d="M22.779 32h-1.466c-6.449-.763-11.174-3.757-14.611-7.591C3.253 20.564.529 15.616 0 8.965V7.179c.12-1.211.715-2.038 1.403-2.743.855-.876 2.144-2.002 3.317-2.042.867-.029 2.341.593 2.935 1.402.51.697.782 2.091 1.019 3.127.243 1.048.789 2.564.638 3.573-.231 1.573-2.32 2.24-2.934 3.382 2.04 4.893 5.377 8.49 9.826 10.974 1.114-.611 2.098-2.451 3.639-2.488.563-.016 1.278.275 1.849.447.627.188 1.172.429 1.724.637.927.35 2.574.817 3.127 1.595.569.802.896 2.115.764 2.934C27.052 29.6 24.378 31.4 22.778 32zM16.477 2.009c7.823 0 14.165 6.341 14.165 14.165h2.011C32.653 7.242 25.412 0 16.477 0v2.009z"/><path d="M16.477 12.266v2.041c1.032 0 1.869.836 1.869 1.867h2.042a3.91 3.91 0 0 0-3.911-3.908zM16.477 8.214a7.962 7.962 0 0 1 7.964 7.962h2.088c0-5.55-4.5-10.049-10.053-10.049v2.087z"/></symbol><symbol id="icon-right-arrow" viewBox="0 0 62 32"><path d="M0 13.539h52.106L42.046 3.48 45.527 0l16.004 16.004L45.527 32l-3.481-3.48 10.058-10.058H0z"/></symbol><symbol id="icon-search" viewBox="0 0 32 32"><path d="M31.4 28.6l-6.209-6.209A13.944 13.944 0 0 0 28 13.998C28 6.265 21.733 0 14 0S0 6.265 0 13.998s6.265 14 13.998 14c3.153 0 6.047-1.055 8.387-2.811l6.213 6.211c.369.367.76.6 1.402.6a2 2 0 0 0 2-2c0-.436-.111-.907-.6-1.398zM3.998 13.998c0-5.524 4.476-10 10-10s10 4.476 10 10-4.476 10-10 10-10-4.475-10-10z"/></symbol><symbol id="icon-toy" viewBox="0 0 32 32"><path d="M0 23.445l14.727 8.552V19.466L0 10.91v12.534zm27.559-16.77v1.317c0 .975-1.856 1.766-4.149 1.766-2.29 0-4.147-.791-4.147-1.766V5.813h.013c.14.92 1.934 1.649 4.134 1.649 2.293 0 4.148-.791 4.148-1.763 0-.976-1.855-1.765-4.148-1.765-.182 0-.362.005-.538.016l-2.67-1.55v1.656c0 .975-1.854 1.766-4.145 1.766-1.44 0-2.708-.313-3.453-.787a2.14 2.14 0 0 0-.393-.315c-.195-.205-.303-.428-.303-.663V2.454l-2.58 1.499a11.637 11.637 0 0 0-.566-.018c-2.29 0-4.147.788-4.147 1.765 0 .972 1.857 1.763 4.147 1.763 2.2 0 3.997-.729 4.136-1.649h.012v2.179c0 .975-1.854 1.766-4.147 1.766-2.29 0-4.147-.791-4.147-1.766V6.694L1.421 8.547l14.777 8.58 14.68-8.524-3.318-1.927zm-7.323 5.457c0 .975-1.857 1.764-4.147 1.764-2.291 0-4.148-.789-4.148-1.764V9.953h.013c.14.921 1.934 1.651 4.136 1.651s3.995-.73 4.136-1.651h.011v2.179h.001zm-2.762 7.446V32l14.729-8.555V11.023l-14.729 8.555zM16.057 3.527c2.291 0 4.145-.789 4.145-1.764 0-.974-1.854-1.764-4.145-1.764s-4.148.79-4.148 1.764c-.001.975 1.857 1.764 4.148 1.764z"/></symbol><symbol id="icon-twitter" viewBox="0 0 37 32"><path d="M37.212 6.48c-.36-.581-1.442-.439-2.232-.589h-1.764c.225-.56.544-1.025.825-1.528.089-.695.403-1.165.354-1.999.205-.265.279-.662.47-.941.165-.228.384-.757.117-1.058-.081-.351-.468-.395-.941-.352-.14.057-.268.125-.352.235-.711.687-1.234 1.609-2.001 2.234-.014.013-.098 0-.117 0-.138.008-.052.073-.119.117-.232.155-.408.241-.585.354-.451.279-.868.706-1.414.823-.839-.335-1.834-.517-2.939-.587-1.836.162-3.654.341-4.82 1.176-1.445.555-2.343 1.653-3.41 2.586-.078.508-.543.631-.587 1.176-.008.071-.019.14-.116.117.068.382-.081.547-.117.823-.002.211.316.684 0 .825-1.304-.19-2.356-1-3.41-1.53-1.139-.571-2.329-.958-3.291-1.763-1.136-.511-1.999-1.295-2.821-2.117-.33-.495-.86-.787-1.058-1.412-.601-.26-.278-1.447-1.176-1.411-.5-.068-.547.316-.704.587-.111.36-.573.368-.589.823-.006.073-.017.14-.117.119-.27 1.728-.836 3.161-.823 5.173.205.658.555 1.171.941 1.647-.663.081-1.136.352-1.412.823-.095 1.703.6 2.613 1.177 3.645.213.609.558 1.087.941 1.528.027.363.327.457.47.706.03.167.195.198.236.354-.063.167.459.286.116.351-.655.208-1.612.111-1.998.589-.173.443-.173 1.322 0 1.763.054.376.447.416.47.823.792.662 1.717 1.185 2.588 1.764.911.263 1.921.43 2.939.587-.162.544-.536.874-.941 1.176-1.238.605-2.934.752-4.351 1.174-.881.06-1.517.365-2.469.354-.528.201-1.355.119-1.764.354-.194.108-.162.152-.352.351-.213.654.176 1.174.704 1.412-.008.401.347.438.589.589.141.29.403.46.706.587.863.743 2.012 1.204 3.058 1.764 1.317.29 2.615.597 3.998.823 1.422.184 3.016.197 4.468.352h1.528c.811.209 1.952.086 2.94.117.151-.162.511-.116.823-.117.828-.427 1.898-.611 2.588-1.174.911-.382 1.569-1.019 2.47-1.412 1.374-1.214 3.073-2.101 3.997-3.76.325-.3.557-.695.706-1.174.42-.248.611-.72.941-1.058.641-.651 1.12-1.466 1.645-2.221.506-.787.914-1.672 1.412-2.469-.016-.643.486-.768.47-1.412.306-.359.281-1.05.589-1.396-.052-.405.046-.658.117-.942.075-2.033-.075-3.843-.471-5.406.933-.246 1.874-.479 2.588-.941.825-.327 1.576-.957 1.282-2.033zm-5.407 6.467c-.243 1.363-.976 2.237-1.647 3.175.094.601-.165.854-.116 1.411a6.856 6.856 0 0 0-.589 1.645c-.322.424-.527.962-.823 1.412-.581.869-1.233 1.668-1.882 2.47-.6.889-1.447 1.531-2.117 2.35-.666.782-1.495 1.404-2.232 2.117a7.837 7.837 0 0 0-1.999 1.058c-.368.143-.735.286-1.058.47-.281.232-.792.23-1.06.46-1.723.233-3.649.27-5.641.235-1.636-.167-3.356-.252-4.822-.589-1.463-.3-2.397-1.13-3.645-1.645.243-.384 1.006-.244 1.528-.352.049-.263.625-.005.704-.236.408.095.452-.173.825-.111.893-.319 1.952-.479 2.705-.941.447-.219.644-.689 1.058-.941.052-.3.165-.541.352-.704.075-.436.319-.7.235-1.293.176-.333.474-.544.47-1.058-.117-.233-.203-.501-.47-.589-.041-.311-.598-.106-.704-.352-.405.051-.66-.046-.941-.119-.244-.068-.773.146-.823-.116-1.336-.037-2.063-.682-2.94-1.174.684-.416 1.637-.56 2.115-1.177.819-.121 1.679-.205 1.764-1.057 0-1.138-1.223-1.049-2.115-1.293-1.226-1.047-1.894-2.653-2.823-3.998.378-.249.895-.359 1.176-.704.72.092.857-.398 1.058-.825.03-.774-.528-.96-.941-1.293a5.513 5.513 0 0 1-1.058-1.174c-.005-1.298-.033-2.621.117-3.764.1-.022.111.046.117.117.36.7.887 1.23 1.293 1.882.844.566 1.468 1.353 2.469 1.764.717.655 1.758.985 2.47 1.647.954.417 1.837.904 2.704 1.411 1.061.308 1.676 1.068 3.175.941.314-.155.625-.316.941-.471.409-.724-.094-1.712.233-2.586.405-1.046 1.265-1.636 1.999-2.35.46-.246.881-.532 1.293-.823a7.73 7.73 0 0 0 1.53-.587 9.81 9.81 0 0 0 1.645-.235h1.999c.387.082.754.189 1.174.235.332.217.603.497 1.057.589 1.252 1.1 2.017 2.691 2.236 4.822-.194.768.084 1.385.002 2.35zm.47-8.936c-.205.539-.365 1.122-.941 1.293-.027-.167-.194-.198-.233-.352-.019-.332.332-.295.47-.47.257-.135.389-.394.704-.471-.011-.143.171-.073 0 0zm-8.702 4.82c.259.214.451.492.823.589.16.351.498.519.942.587.075-.238.549-.078.587-.352.276-.037.263-.363.47-.471-.029-.873-.205-1.596-.587-2.115-1.203-.671-2.659.062-2.236 1.763z"/></symbol><symbol id="icon-video" viewBox="0 0 32 32"><path d="M26 15l6-4v16l-6-4v-8zm-2 0v8a4 4 0 0 1-4 4H4a4 4 0 0 1-4-4v-8a4 4 0 0 1 4-4h10a2 2 0 0 1 2-2V7H5a1 1 0 1 1 0-2h12a1 1 0 0 1 1 1v3a2 2 0 0 1 2 2 4 4 0 0 1 4 4zm-12 0H4v8h8v-8zm8 1a1 1 0 0 0-1-1h-4a1 1 0 1 0 0 2h4a1 1 0 0 0 1-1z"/></symbol><symbol id="logo-footer" viewBox="0 0 101.615 34.056"><path d="M19.135 21.495c-.083-2.683-.51-5.347-.475-8.035.028-2.174.389-4.41-.36-6.495.047-.237.096-.473.14-.711.193-1.045-3.271-.492-3.813.464-.343.28-.519.615-.375.957.037.086.069.174.102.261-.656 3.204-1.57 6.306-2.621 9.412-.402 1.188-.888 2.349-1.298 3.533-.582-1.104-1.169-2.194-1.643-3.377-1.374-3.433-2.612-6.902-4.287-10.206.19-1.528-3.204-1.368-3.873.032-.809 1.694-.705 3.403-.438 5.214.3 2.042.353 4.05.377 6.111.047 3.976.358 7.943.417 11.919-.354.395-.461.881-.091 1.375.162.216.361.382.571.549.904.724 3.5.107 3.496-1.271-.014-4.123-.312-8.238-.42-12.358a98.054 98.054 0 0 1-.024-1.21l.171.434c.64 1.604 1.31 3.163 2.185 4.654.868 1.478 1.303 3.064 1.803 4.677-.189.217-.303.462-.233.708-.039.18.07.292.251.36.639.548 1.841.274 2.509-.007a6.07 6.07 0 0 0 .826-.424c.345-.212.883-.679.729-1.159l-.087-.279c.47-1.27.709-2.589.965-3.93.272-1.428.782-2.78 1.295-4.133.052.619.106 1.238.156 1.855.204 2.554.033 5.072.007 7.626-.008.847.054 1.633.219 2.461.068.343.367 1.808.281 1.887-.611.564-.433 1.257.385 1.437.915.201 2.081-.105 2.77-.742 1.198-1.106.632-2.845.361-4.241-.452-2.342.095-4.964.022-7.348zM27.499 22.17c-.074-1.988-.765-3.862-.774-5.872-.011-2.305.181-4.593-.155-6.886-.106-.725-4.056.1-3.917 1.05.309 2.11.197 4.229.159 6.354-.037 2.044.468 3.898.73 5.904.269 2.054-.084 4.157.149 6.213.109.962.75 2.743.089 3.58-.42.532 1.469.342 1.553.326.769-.142 1.793-.392 2.304-1.038.653-.828.196-2.426.053-3.357-.316-2.059-.114-4.195-.191-6.274zM43.828 18.851c-2.062-2.784-5.889-.78-8.561-1.54-1.377-.392-1.395-2.271-1.392-3.396.004-1.426-.114-2.732-.273-4.146-.119-1.052-.024-2.121.746-2.904.142-.144.859-.336.81-.339a8.132 8.132 0 0 1 1.067-.093c1.549-.066 4.613.232 4.019 2.483-.266 1.01 3.596.431 3.877-.637 1.213-4.598-7.284-3.714-9.686-3.078-2.21.588-4.648 1.846-4.775 4.399-.061 1.219.273 2.379.325 3.587.061 1.39-.198 2.776.289 4.118 1.082 2.982 5.52 1.576 7.778 1.745 3.845.287 2.697 5.469 2.748 7.883.027 1.288 1.181 3.429.211 4.507-.595.662-1.982.699-2.792.768-.813.068-2.201.312-2.742-.461-.993-1.418.091-3.799-.121-5.425-.121-.924-4.066-.095-3.917 1.05.342 2.627-1.399 6.145 2.402 6.596 2.441.289 5.191-.161 7.5-.928 1.196-.396 2.307-.942 3.243-1.793 1.035-.941.694-2.348.417-3.547-.677-2.918.731-6.279-1.173-8.849zM61.155 18.662c-.122-3.777-.69-7.513-.706-11.297-.008-1.971-3.963-1.305-3.957.343.015 3.608.497 7.167.682 10.764l.013.221c-1.949-.018-3.899.177-5.853.246.201-4.633-.611-9.227-.435-13.857.022-.582-3.874-.09-3.917 1.049-.171 4.475.587 8.915.453 13.392-.064 2.136-.245 4.264-.259 6.402-.007 1.095.171 2.183.329 3.263.146.999.484 2.331.182 3.318-.237.772 3.561.29 3.862-.694.544-1.778-.222-4.039-.405-5.839-.175-1.725-.039-3.499.083-5.248 2.03-.13 4.059-.297 6.08-.012.09 1.378.196 2.754.322 4.134a45.83 45.83 0 0 1 .196 3.475c.015 1.019.142 2.496-.221 3.461-.773 2.057 3.15 1.889 3.723.364.703-1.87.502-4.199.383-6.164-.148-2.443-.477-4.874-.555-7.321zM78.087 23.136c-.939-2.758-2.373-5.177-3.616-7.797 1.001-1.949 2.018-3.898 2.932-5.888.831-1.808 1.446-3.819 3.08-5.092.574-.447.55-.896-.255-.951-.875-.061-2.064.192-2.77.742-1.485 1.158-2.427 2.563-3.201 4.268a160.304 160.304 0 0 1-2.914 6.075l-.224.443c-.49.315-.785.762-.639 1.266-.792 1.563-1.6 3.117-2.499 4.61-.299-5.534-.955-11.061-1.15-16.6-.045-1.27-3.971-.479-3.917 1.049.243 6.868 1.219 13.719 1.286 20.587l-.047.051c-.301.308-.19.494.051.602a60.756 60.756 0 0 1-.209 5.254c-.472.745.463 1.139 1.084 1.139h.096c.739 0 2.626-.35 2.718-1.364.191-2.1.251-4.196.232-6.291 1.59-1.715 2.89-3.63 4.055-5.635.759 1.48 1.482 2.972 1.989 4.582.861 2.741 2.299 5.261 3.131 8.014.544 1.806 4.457.738 3.917-1.049-.829-2.753-2.204-5.297-3.13-8.015zM101.59 18.501c-.21-.832-1.372-.849-2.271-.77-.012-.335-.02-.671-.036-1.006-.125-2.661-.165-5.379-.392-8.032-.209-2.458-1.585-3.337-3.972-3.247-2.416.092-5.229.527-7.482 1.403-2.607 1.014-4.058 2.935-4.559 5.681-.549 3.014.24 6.219.373 9.246.154 3.503.066 7.014.062 10.519 0 .573 3.916.031 3.917-1.049.003-2.776.042-5.551 0-8.327a52.196 52.196 0 0 0-.102-2.444c1.369-.593 3.687.012 5.05.141 1.107.104 2.169-.166 3.244-.292.021 2.312.107 4.635.202 6.944.049 1.184.477 3.53-.354 4.511-.437.516 1.48.343 1.555.33.793-.146 1.761-.401 2.303-1.041.949-1.12.456-3.79.401-5.126-.078-1.91-.102-3.824-.141-5.737 1.154-.147 2.417-.854 2.202-1.704zm-14.618-.15c-.103-1.245-.217-2.49-.303-3.743-.16-2.331.117-5.583 2.29-6.999.58-.379 1.675-.315 2.354-.438.97-.176 1.956-.389 2.829.19 1.21.802.912 3.657.911 4.869-.003 2.005.207 4.001.31 6.003-.552.055-1.111.089-1.683.076-2.286-.053-4.544-.413-6.708.042zM24.108 6.7a3.157 3.157 0 0 0 1.477-.524l.256-.216c.52-.335.972-.827.728-1.361-.504-1.105-.423-2.231-.416-3.414.006-.958-.963-1.246-1.781-1.174-.723.063-2.168.581-2.175 1.52-.006.993-.071 2.016.109 2.992-.047.113-.074.239-.104.355-.055.212.016.42.142.59l.002.134.015.335a.901.901 0 0 0 .429.53c.388.233.878.275 1.318.233z"/></symbol></svg>